<?xml version="1.0" standalone="no"?>
<!DOCTYPE svg PUBLIC "-//W3C//DTD SVG 20010904//EN"
 "http://www.w3.org/TR/2001/REC-SVG-20010904/DTD/svg10.dtd">
<svg version="1.0" xmlns="http://www.w3.org/2000/svg"
 width="1920.000000pt" height="1920.000000pt" viewBox="0 0 1920.000000 1920.000000"
 preserveAspectRatio="xMidYMid meet">
<metadata>
Created by potrace 1.11, written by Peter Selinger 2001-2013
</metadata>
<g transform="translate(0.000000,1920.000000) scale(0.100000,-0.100000)"
fill="#000000" stroke="none">
<path d="M739 13108 c-4 -234 0 -5221 5 -5225 3 -4 3993 -7 8866 -7 l8860 -1
0 2633 0 2632 -8865 0 -8865 0 -1 -32z m17622 -77 c3 0 5 -1135 5 -2521 0
-2279 -1 -2520 -15 -2524 -9 -2 -3951 -3 -8761 -2 l-8745 1 -1 2520 c0 1386 3
2522 7 2525 6 4 17490 5 17510 1z"/>
<path d="M5818 11575 c-2 -2 -31 -6 -65 -9 -74 -8 -208 -45 -287 -80 -154 -68
-314 -209 -405 -357 -48 -78 -105 -215 -116 -281 -3 -17 -7 -34 -9 -37 -8 -13
-19 -121 -21 -206 -4 -193 54 -399 155 -553 134 -202 349 -347 593 -399 87
-18 305 -24 408 -11 72 9 208 52 282 89 l58 28 57 -25 c87 -40 93 -42 149 -60
29 -9 60 -14 68 -10 9 3 13 2 10 -4 -4 -6 6 -10 22 -11 15 0 37 -3 48 -5 11
-3 64 -7 119 -11 77 -4 100 -2 107 8 6 9 9 10 9 2 0 -7 9 -10 23 -7 12 3 40 7
62 8 57 5 57 5 49 19 -5 8 -2 8 9 -2 14 -11 20 -11 32 -1 8 7 15 10 15 7 0 -7
101 22 115 33 11 9 16 10 41 10 11 0 14 5 9 18 -4 12 -3 14 5 6 8 -8 26 -3 68
19 84 45 153 97 145 109 -4 7 -1 8 6 4 8 -5 37 18 81 65 38 40 68 75 66 77 -2
2 6 14 18 27 41 45 129 243 137 310 1 6 5 20 10 33 7 17 6 21 -4 16 -8 -5 -8
-2 2 9 7 9 11 28 9 42 -3 14 -1 25 4 25 12 0 8 269 -4 276 -4 3 -6 10 -3 15
18 28 -116 389 -144 389 -4 0 -13 12 -19 26 -7 14 -16 23 -21 19 -5 -3 -13 0
-17 6 -4 8 -3 9 4 5 7 -4 12 -3 12 2 0 13 -34 42 -49 42 -7 0 -9 5 -5 12 4 6
-1 17 -11 24 -9 7 -34 28 -54 46 -51 47 -123 98 -137 98 -7 0 -14 3 -16 8 -10
23 -205 99 -304 117 -47 10 -324 15 -376 8 -21 -3 -36 -8 -34 -12 2 -3 -10 -6
-27 -5 -35 1 -136 -33 -215 -73 -30 -14 -59 -26 -65 -26 -7 0 -39 13 -72 28
-136 63 -268 94 -423 99 -56 1 -103 2 -104 1z m792 -171 c0 -8 -19 -13 -24 -6
-3 5 1 9 9 9 8 0 15 -2 15 -3z m90 0 c0 -8 -19 -13 -24 -6 -3 5 1 9 9 9 8 0
15 -2 15 -3z m70 0 c0 -8 -19 -13 -24 -6 -3 5 1 9 9 9 8 0 15 -2 15 -3z m90 0
c0 -8 -19 -13 -24 -6 -3 5 1 9 9 9 8 0 15 -2 15 -3z m160 0 c0 -8 -19 -13 -24
-6 -3 5 1 9 9 9 8 0 15 -2 15 -3z m70 0 c0 -8 -19 -13 -24 -6 -3 5 1 9 9 9 8
0 15 -2 15 -3z m90 0 c0 -8 -19 -13 -24 -6 -3 5 1 9 9 9 8 0 15 -2 15 -3z
m325 -33 c3 -5 2 -12 -3 -15 -5 -3 -9 1 -9 9 0 17 3 19 12 6z m-1423 -35 c38
-9 84 -22 104 -31 30 -12 34 -17 22 -28 -7 -8 -22 -26 -33 -41 -11 -15 -32
-41 -47 -58 -38 -43 -112 -193 -103 -208 5 -8 4 -11 -2 -7 -8 5 -32 -52 -38
-93 -1 -6 -11 -51 -22 -95 -13 -57 -9 -351 5 -367 7 -9 9 -18 4 -20 -6 -2 -5
-13 1 -28 5 -14 11 -32 12 -40 12 -63 51 -156 64 -153 6 2 8 -4 5 -11 -7 -18
14 -58 26 -51 6 3 7 0 4 -8 -3 -9 23 -51 61 -102 37 -48 65 -88 63 -90 -8 -6
-109 -35 -163 -46 -75 -14 -221 -15 -302 0 -197 36 -364 144 -467 299 -119
181 -152 394 -101 645 24 118 94 243 190 342 106 107 244 179 397 204 76 12
242 6 320 -13z m1030 11 c14 -1 24 -4 22 -7 -8 -7 108 -40 119 -33 5 3 7 1 3
-5 -3 -6 2 -13 13 -17 75 -23 219 -149 284 -246 34 -52 102 -199 91 -199 -3 0
1 -10 7 -22 7 -13 14 -42 15 -65 5 -57 7 -67 19 -75 6 -5 5 -8 -4 -8 -11 0
-11 -3 -1 -15 7 -8 9 -15 4 -15 -5 0 -9 -20 -9 -45 0 -25 3 -45 7 -45 3 0 5
-8 3 -17 -2 -10 -4 -18 -5 -18 -1 0 -3 -11 -6 -25 -6 -36 -17 -93 -21 -110 -2
-8 -5 -26 -6 -40 -1 -14 -6 -28 -12 -32 -5 -4 -10 -11 -10 -15 -2 -17 -65
-132 -89 -160 -27 -33 -34 -49 -14 -37 7 4 8 3 4 -5 -4 -6 -11 -9 -15 -6 -5 2
-17 -5 -27 -17 -11 -11 -40 -38 -66 -58 -26 -21 -45 -40 -42 -42 2 -3 -2 -5
-8 -5 -24 -1 -148 -70 -141 -78 5 -4 3 -5 -4 -2 -6 4 -34 1 -62 -6 -42 -11
-49 -15 -38 -26 10 -11 8 -11 -9 -1 -14 9 -31 10 -50 5 -16 -4 -39 -7 -52 -6
-13 2 -29 -3 -37 -9 -9 -8 -15 -8 -20 0 -5 8 -10 8 -20 0 -9 -8 -15 -8 -20 0
-9 14 -65 13 -65 -2 0 -10 -2 -10 -8 -2 -4 7 -25 15 -46 18 -22 4 -42 9 -45
11 -2 3 -14 -3 -25 -12 -15 -13 -17 -14 -9 -2 11 13 5 18 -39 32 -28 9 -55 14
-60 11 -21 -13 -3 17 47 79 144 180 209 364 210 602 0 181 -11 253 -62 390
-41 109 -82 179 -161 273 -33 40 -42 56 -33 65 6 6 11 7 11 3 0 -5 6 -3 14 3
8 7 25 14 38 16 12 3 52 11 88 19 58 12 159 13 342 3z m215 -22 c0 -8 -4 -12
-9 -9 -5 3 -6 10 -3 15 9 13 12 11 12 -6z m80 0 c0 -8 -4 -12 -9 -9 -5 3 -6
10 -3 15 9 13 12 11 12 -6z m167 -83 c3 -5 -1 -9 -9 -9 -8 0 -12 4 -9 9 3 4 7
8 9 8 2 0 6 -4 9 -8z m80 -80 c3 -5 -1 -9 -9 -9 -8 0 -12 4 -9 9 3 4 7 8 9 8
2 0 6 -4 9 -8z m-1202 -39 c78 -82 153 -231 175 -348 43 -232 5 -448 -108
-615 -50 -73 -96 -123 -112 -117 -6 2 -32 28 -56 58 -25 30 -48 53 -53 52 -4
-2 -7 0 -6 5 4 12 -24 72 -33 72 -5 0 -8 3 -7 8 1 4 -3 21 -8 37 -6 17 -12 35
-14 40 -1 6 -6 17 -11 26 -8 17 -17 51 -26 109 -3 19 -10 41 -17 49 -7 9 -7
12 0 8 11 -6 12 139 0 150 -3 3 -1 14 5 25 8 14 7 24 -3 36 -9 11 -10 14 0 8
6 -4 12 -4 13 1 3 35 8 56 24 108 10 33 19 62 20 65 1 3 10 23 20 45 10 22 17
43 17 48 -1 4 3 7 9 7 5 0 7 5 4 10 -3 6 -2 10 4 10 6 0 16 11 23 24 16 31 88
116 97 116 4 0 23 -17 43 -37z m-402 -199 c0 -8 -19 -13 -24 -6 -3 5 1 9 9 9
8 0 15 -2 15 -3z m84 -2 c3 -5 -1 -9 -9 -9 -8 0 -12 4 -9 9 3 4 7 8 9 8 2 0 6
-4 9 -8z m1670 0 c3 -5 -1 -9 -9 -9 -8 0 -12 4 -9 9 3 4 7 8 9 8 2 0 6 -4 9
-8z m-24 -36 c0 -2 -8 -10 -17 -17 -16 -13 -17 -12 -4 4 13 16 21 21 21 13z
m-1680 -80 c0 -2 -8 -10 -17 -17 -16 -13 -17 -12 -4 4 13 16 21 21 21 13z
m1625 -35 c3 -5 2 -12 -3 -15 -5 -3 -9 1 -9 9 0 17 3 19 12 6z m-1678 -96 c0
-8 -4 -12 -9 -9 -5 3 -6 10 -3 15 9 13 12 11 12 -6z m1760 0 c0 -8 -4 -12 -9
-9 -5 3 -6 10 -3 15 9 13 12 11 12 -6z m-1682 -64 c3 -5 2 -12 -3 -15 -5 -3
-9 1 -9 9 0 17 3 19 12 6z m-115 -45 c0 -2 -7 -7 -16 -10 -8 -3 -12 -2 -9 4 6
10 25 14 25 6z m117 -51 c0 -8 -4 -12 -9 -9 -5 3 -6 10 -3 15 9 13 12 11 12
-6z m1677 7 c3 -5 -1 -9 -9 -9 -8 0 -12 4 -9 9 3 4 7 8 9 8 2 0 6 -4 9 -8z
m-1757 -77 c0 -8 -4 -12 -9 -9 -5 3 -6 10 -3 15 9 13 12 11 12 -6z m1683 -81
c0 -8 -19 -13 -24 -6 -3 5 1 9 9 9 8 0 15 -2 15 -3z m-1603 -89 c0 -8 -4 -12
-9 -9 -5 3 -6 10 -3 15 9 13 12 11 12 -6z m-3 -73 c3 -5 -1 -9 -9 -9 -8 0 -12
4 -9 9 3 4 7 8 9 8 2 0 6 -4 9 -8z m1536 2 c0 -8 -19 -13 -24 -6 -3 5 1 9 9 9
8 0 15 -2 15 -3z m154 -2 c3 -5 -1 -9 -9 -9 -8 0 -12 4 -9 9 3 4 7 8 9 8 2 0
6 -4 9 -8z m-1644 -118 c0 -8 -19 -13 -24 -6 -3 5 1 9 9 9 8 0 15 -2 15 -3z
m35 -43 c3 -5 2 -12 -3 -15 -5 -3 -9 1 -9 9 0 17 3 19 12 6z m1359 -79 c3 -5
-1 -9 -9 -9 -8 0 -12 4 -9 9 3 4 7 8 9 8 2 0 6 -4 9 -8z m-1309 -22 c3 -6 -1
-7 -9 -4 -18 7 -21 14 -7 14 6 0 13 -4 16 -10z m1072 -25 c0 -8 -4 -12 -9 -9
-5 3 -6 10 -3 15 9 13 12 11 12 -6z m163 -31 c0 -8 -19 -13 -24 -6 -3 5 1 9 9
9 8 0 15 -2 15 -3z m-283 -49 c0 -8 -4 -12 -9 -9 -5 3 -6 10 -3 15 9 13 12 11
12 -6z m-600 -30 c0 -8 -4 -12 -9 -9 -5 3 -6 10 -3 15 9 13 12 11 12 -6z m124
-2 c13 -16 12 -17 -3 -4 -10 7 -18 15 -18 17 0 8 8 3 21 -13z m199 1 c0 -8
-19 -13 -24 -6 -3 5 1 9 9 9 8 0 15 -2 15 -3z m157 -9 c0 -8 -4 -12 -9 -9 -5
3 -6 10 -3 15 9 13 12 11 12 -6z m238 6 c3 -5 2 -12 -3 -15 -5 -3 -9 1 -9 9 0
17 3 19 12 6z m-601 -39 c3 -5 -1 -9 -9 -9 -8 0 -12 4 -9 9 3 4 7 8 9 8 2 0 6
-4 9 -8z m283 -37 c0 -8 -4 -12 -9 -9 -5 3 -6 10 -3 15 9 13 12 11 12 -6z
m-400 -10 c0 -8 -4 -12 -9 -9 -5 3 -6 10 -3 15 9 13 12 11 12 -6z m243 9 c0
-8 -19 -13 -24 -6 -3 5 1 9 9 9 8 0 15 -2 15 -3z m330 0 c0 -8 -19 -13 -24 -6
-3 5 1 9 9 9 8 0 15 -2 15 -3z m-440 -40 c0 -8 -19 -13 -24 -6 -3 5 1 9 9 9 8
0 15 -2 15 -3z m350 -4 c0 -5 -5 -10 -11 -10 -5 0 -7 5 -4 10 3 6 8 10 11 10
2 0 4 -4 4 -10z"/>
<path d="M2629 11528 c-2 -131 0 -1860 3 -1863 3 -4 994 -8 1246 -6 l72 1 0
105 0 105 -545 0 c-512 0 -545 1 -546 18 0 9 -1 386 -2 837 l-2 820 -112 3
c-112 3 -113 2 -114 -20z"/>
<path d="M9140 10606 c0 -894 1 -946 18 -947 67 -3 193 0 200 5 5 3 8 130 7
283 0 153 1 284 3 291 3 9 72 12 297 12 l293 0 209 -262 c115 -145 220 -278
233 -295 l24 -33 144 0 144 0 -19 24 c-10 13 -123 152 -250 309 -128 157 -233
289 -232 294 0 4 35 25 77 46 208 102 325 308 324 572 -1 265 -114 466 -317
566 -149 73 -145 72 -677 77 l-478 3 0 -945z m959 705 c181 -63 275 -198 280
-406 6 -214 -116 -376 -321 -430 -37 -10 -136 -14 -372 -15 l-321 0 2 432 c0
238 1 436 2 439 1 4 151 5 334 4 315 -2 335 -3 396 -24z"/>
<path d="M12150 11468 c-3 -623 -2 -1800 2 -1803 3 -4 1093 -8 1308 -6 l55 1
-1 98 c-1 53 -2 100 -3 103 0 3 -256 5 -568 5 l-568 0 -1 320 c0 175 1 324 3
329 2 7 170 10 483 10 l480 0 1 42 c1 55 1 105 0 141 l-1 27 -473 -1 c-259 0
-477 1 -482 3 -7 2 -11 102 -10 301 l0 297 540 2 c297 1 547 2 555 2 13 1 15
19 15 104 l0 102 -667 3 -668 2 0 -82z"/>
<path d="M15010 10605 l0 -945 35 -1 c19 0 55 0 80 0 25 0 61 0 80 0 l35 1 2
767 3 767 125 -153 c69 -85 130 -159 135 -165 10 -11 187 -225 470 -570 77
-94 192 -234 255 -311 64 -77 138 -167 164 -200 27 -33 63 -77 80 -97 l32 -37
89 -1 c50 -1 104 -1 120 -1 l31 1 -1 943 0 942 -112 3 -113 3 -1 -38 c0 -21 0
-368 0 -772 l-1 -734 -22 24 c-12 13 -136 164 -275 334 -140 171 -273 333
-296 360 -23 28 -149 181 -279 340 -131 160 -245 299 -254 310 -9 11 -45 55
-80 98 l-63 77 -120 0 -119 0 0 -945z"/>
<path d="M904 7006 c-95 -45 -139 -121 -137 -241 1 -118 41 -192 127 -237 55
-29 183 -32 238 -5 34 17 36 21 26 43 -13 29 -16 29 -47 7 -34 -23 -135 -22
-184 1 -140 68 -120 345 28 393 42 14 117 9 155 -11 18 -9 34 -15 35 -14 1 2
7 12 13 24 10 18 7 23 -26 39 -59 29 -167 29 -228 1z"/>
<path d="M1240 7005 c0 -17 6 -25 18 -26 9 0 44 -1 77 -2 l60 -2 2 -225 c1
-124 2 -228 2 -232 1 -5 15 -8 31 -8 l30 0 0 235 0 234 58 0 c102 -1 102 -1
102 26 l0 25 -190 0 -190 0 0 -25z"/>
<path d="M1742 6851 c85 -164 92 -182 82 -208 -6 -15 -21 -52 -33 -80 l-21
-53 35 0 c38 0 27 -17 130 210 70 154 125 274 136 293 9 16 6 18 -27 15 -43
-3 -36 6 -111 -160 -31 -70 -59 -125 -62 -122 -3 3 -38 67 -77 142 -70 136
-71 137 -108 140 l-37 3 93 -180z"/>
<path d="M2266 6843 c-78 -298 -73 -286 -102 -280 -26 5 -24 10 -27 -93 -1
-44 0 -45 31 -48 32 -3 32 -3 32 42 l0 46 166 0 c151 0 165 -1 163 -17 -5 -59
0 -73 31 -73 l30 0 0 70 c0 67 -4 76 -32 71 -5 0 -8 105 -8 234 l0 235 -118 0
-117 0 -49 -187z m220 -71 l-1 -207 -110 0 c-74 0 -109 4 -108 11 7 38 16 74
48 199 37 145 43 172 44 192 1 11 90 22 117 15 8 -2 11 -64 10 -210z"/>
<path d="M2729 7018 c-3 -51 -4 -468 0 -485 2 -18 10 -23 32 -23 l29 0 0 260
0 260 -30 0 c-17 0 -30 -5 -31 -12z"/>
<path d="M3037 7016 c-49 -18 -74 -41 -87 -81 -24 -73 4 -148 70 -185 12 -7 5
-28 -40 -117 -30 -59 -56 -111 -58 -115 -2 -5 13 -8 32 -8 36 0 36 0 89 110
l52 110 77 0 76 0 0 -97 c0 -54 0 -104 1 -110 1 -7 14 -13 31 -13 l30 0 0 260
0 260 -117 0 c-73 -1 -133 -6 -156 -14z m208 -136 l0 -95 -82 -1 c-123 -1
-163 24 -163 104 0 66 47 90 170 88 l75 -1 0 -95z"/>
<path d="M3670 6770 l0 -262 133 4 c115 3 137 6 168 26 75 46 82 146 16 220
-11 12 -28 22 -36 22 -11 1 -9 5 7 13 51 29 70 100 43 164 -21 51 -67 67 -208
71 l-123 4 0 -262z m221 200 c39 -11 59 -41 59 -90 0 -57 -55 -84 -160 -78
l-55 3 -3 88 -3 87 63 0 c35 0 79 -5 99 -10z m56 -255 c40 -46 27 -112 -28
-140 -30 -16 -156 -24 -177 -12 -6 4 -10 45 -10 96 l0 90 36 3 c20 2 64 0 97
-4 47 -5 64 -12 82 -33z"/>
<path d="M4170 6770 l0 -261 158 3 c154 3 157 3 160 26 4 25 14 23 -148 25
l-105 2 0 90 0 90 115 1 c114 1 115 1 115 25 0 24 -1 24 -116 27 l-116 3 1 87
1 87 115 2 c63 1 118 2 121 2 4 1 7 12 7 26 l0 25 -154 0 -154 0 0 -260z"/>
<path d="M4743 7006 c-91 -43 -144 -141 -138 -261 5 -100 50 -176 129 -217 55
-29 183 -32 238 -4 34 16 36 20 26 40 -6 11 -12 22 -13 24 -1 1 -17 -6 -36
-15 -46 -24 -135 -22 -185 3 -57 29 -96 108 -93 189 6 165 118 247 265 196
l55 -20 8 22 c22 57 -159 87 -256 43z"/>
<path d="M5137 6783 c1 -137 2 -254 2 -260 1 -8 14 -13 31 -13 l30 0 0 260 0
260 -32 0 -33 0 2 -247z"/>
<path d="M5449 7023 c-1 -14 -7 -37 -59 -237 -28 -109 -53 -207 -55 -218 -2
-11 -7 -28 -10 -39 -5 -16 -1 -19 28 -19 l35 0 22 88 c12 48 23 94 25 102 2 8
13 49 24 90 12 41 24 90 27 109 13 77 18 81 81 79 l58 -3 2 -215 c1 -118 2
-223 2 -232 1 -13 9 -18 31 -18 l30 0 0 260 0 260 -120 0 c-66 0 -120 -3 -121
-7z"/>
<path d="M5840 6769 l0 -262 103 5 c117 6 164 26 191 82 51 108 -25 202 -168
208 -66 3 -64 1 -64 118 0 47 -1 91 -1 98 -1 7 -14 12 -31 12 l-30 0 0 -261z
m195 -33 c38 -16 55 -42 55 -83 -1 -56 -53 -90 -135 -89 l-50 1 -1 93 -1 92
49 0 c27 0 64 -6 83 -14z"/>
<path d="M6300 6771 l0 -261 30 0 c34 0 32 -8 32 136 l0 101 144 0 144 0 0
-119 0 -118 29 0 c16 0 31 6 33 13 2 6 3 122 3 257 l-1 245 -32 3 -32 3 0
-115 0 -116 -144 0 -143 0 0 113 1 112 -32 3 -32 3 0 -260z"/>
<path d="M7018 7016 c-82 -30 -131 -83 -153 -165 -37 -141 15 -274 129 -327
42 -19 64 -23 126 -20 151 6 236 90 245 240 6 117 -41 213 -129 258 -50 26
-167 34 -218 14z m187 -62 c53 -25 87 -89 93 -174 4 -61 1 -76 -22 -124 -34
-70 -77 -98 -155 -101 -57 -3 -113 15 -146 49 -74 74 -69 259 10 328 55 48
146 57 220 22z"/>
<path d="M7510 6770 l0 -260 30 0 c35 0 32 -27 32 257 0 180 2 203 16 207 10
2 58 4 107 4 50 0 97 1 105 1 9 1 16 12 16 26 l2 25 -154 0 -154 0 0 -260z"/>
<path d="M8068 7016 c-112 -41 -169 -135 -162 -267 7 -144 87 -232 223 -246
87 -8 165 18 217 72 52 54 72 111 69 200 -3 111 -48 186 -134 230 -45 23 -165
29 -213 11z m178 -58 c65 -28 97 -88 100 -188 3 -65 0 -81 -24 -124 -34 -62
-83 -89 -161 -90 -81 -1 -128 26 -164 95 -26 49 -29 61 -24 126 6 84 26 131
69 163 53 39 139 47 204 18z"/>
<path d="M8868 6928 c-81 -314 -95 -363 -106 -364 -7 -1 -20 -2 -30 -3 -14 -1
-17 -10 -15 -63 1 -35 2 -66 2 -70 1 -5 15 -8 31 -8 29 0 30 2 30 45 l0 45
166 0 c151 0 165 -1 163 -17 -5 -59 0 -73 31 -73 l30 0 0 70 c0 67 -4 76 -32
71 -5 0 -8 105 -8 234 l0 235 -118 0 -118 0 -26 -102z m200 -154 c0 -179 -2
-204 -17 -208 -14 -4 -203 -1 -208 3 0 0 9 39 22 86 13 47 26 101 29 119 3 18
10 45 15 60 6 14 9 26 7 26 -2 0 4 26 14 58 17 55 19 57 56 62 87 12 82 24 82
-206z"/>
<path d="M9300 6770 l0 -261 158 3 c154 3 157 3 160 26 4 25 12 24 -146 25
-95 1 -103 2 -107 21 -3 19 -1 121 3 153 1 8 27 12 80 11 154 0 150 -1 148 27
l-1 25 -116 0 -116 0 1 88 1 87 113 2 c61 1 117 2 122 2 6 1 10 12 10 26 l0
25 -155 0 -155 0 0 -260z"/>
<path d="M9760 6770 l0 -260 30 0 c17 0 30 3 31 8 0 4 1 51 2 105 0 82 3 100
20 114 18 17 20 17 44 -12 14 -17 51 -59 83 -95 32 -36 68 -78 81 -93 20 -24
31 -28 62 -25 l38 3 -33 36 c-68 75 -198 230 -198 237 0 4 16 25 36 47 184
205 177 195 126 195 -33 0 -44 -6 -74 -42 -20 -24 -57 -65 -83 -93 -25 -27
-56 -62 -68 -77 -12 -15 -25 -28 -29 -28 -3 0 -6 44 -6 98 0 152 2 142 -32
142 l-30 0 0 -260z"/>
<path d="M10388 7016 c-112 -41 -171 -140 -163 -273 6 -101 52 -176 135 -219
54 -28 191 -26 246 3 82 44 124 117 129 223 5 113 -43 208 -127 251 -53 27
-168 35 -220 15z m178 -58 c59 -25 91 -78 101 -167 15 -148 -64 -242 -199
-236 -71 3 -118 33 -151 96 -26 48 -28 62 -25 124 7 102 53 176 118 191 14 3
30 7 35 9 19 6 92 -4 121 -17z"/>
<path d="M10880 6771 l0 -261 30 0 c17 0 30 5 31 13 1 6 2 55 2 107 l2 95 83
2 c104 3 146 21 174 76 16 32 19 52 15 93 -11 106 -52 131 -219 134 l-118 1 0
-260z m222 200 c41 -3 68 -93 42 -143 -19 -37 -49 -48 -134 -48 l-69 0 1 93
c0 50 2 95 4 99 4 6 66 5 156 -1z"/>
<path d="M11376 6863 c48 -92 90 -172 94 -177 5 -4 2 -24 -6 -43 -8 -18 -23
-56 -34 -83 l-20 -50 35 0 c28 0 37 5 44 23 5 12 36 80 70 150 34 71 61 130
61 132 0 6 59 134 76 167 21 39 17 48 -18 48 -33 0 -34 -2 -97 -146 -35 -79
-66 -142 -70 -139 -3 4 -38 68 -77 143 -70 136 -71 137 -108 140 l-37 3 87
-168z"/>
<path d="M11970 7005 c0 -14 3 -25 8 -26 4 0 39 -1 77 -2 l70 -2 2 -225 c1
-124 2 -228 2 -232 1 -5 15 -8 31 -8 l30 0 0 234 0 234 43 0 c116 0 117 0 117
27 l0 25 -190 0 -190 0 0 -25z"/>
<path d="M12569 6982 c-9 -26 -30 -83 -47 -127 -17 -44 -53 -140 -80 -212
l-50 -133 33 0 c31 0 33 3 60 75 15 41 31 78 37 81 8 5 83 7 174 5 30 -1 33
-4 60 -81 27 -78 28 -80 60 -80 l33 0 -35 98 c-53 145 -103 289 -127 360 l-21
62 -41 0 c-39 0 -40 -2 -56 -48z m100 -146 l38 -116 -84 0 c-46 0 -83 1 -83 3
0 1 18 54 40 116 22 62 40 115 40 119 0 19 16 -20 49 -122z"/>
<path d="M13368 7003 c-2 -16 -8 -27 -15 -26 -6 1 -35 -5 -64 -13 -98 -29
-152 -94 -155 -188 -2 -54 8 -84 42 -132 31 -42 113 -81 177 -83 11 -1 17 -9
17 -26 0 -21 5 -25 30 -25 25 0 30 4 30 24 0 20 6 24 45 29 104 15 179 83 191
175 17 135 -72 231 -223 241 -7 1 -13 12 -13 26 0 21 -5 25 -29 25 -25 0 -30
-4 -33 -27z m2 -234 l0 -158 -31 4 c-149 19 -190 216 -59 286 14 7 31 14 38
15 8 1 16 4 18 7 2 2 11 4 19 4 13 0 15 -25 15 -158z m151 134 c49 -24 72 -58
77 -118 7 -87 -22 -131 -108 -162 -62 -22 -60 -28 -60 148 l0 161 28 -6 c15
-4 43 -14 63 -23z"/>
<path d="M13900 7025 c0 -3 -23 -94 -51 -203 -28 -108 -52 -205 -54 -215 -2
-10 -7 -27 -10 -38 -3 -10 -8 -28 -11 -39 -5 -17 -1 -20 29 -20 34 0 35 2 47
53 7 28 23 90 36 137 12 47 25 99 28 116 3 17 12 49 20 72 9 23 15 46 16 50 2
34 13 43 53 41 79 -3 73 15 72 -227 0 -119 1 -223 3 -229 2 -7 17 -13 33 -13
l29 0 0 260 0 260 -120 0 c-66 0 -120 -2 -120 -5z"/>
<path d="M14465 7021 c-111 -29 -173 -115 -181 -249 -8 -143 81 -252 218 -268
182 -21 303 95 293 280 -7 106 -51 179 -135 221 -38 20 -148 29 -195 16z m183
-74 c52 -34 82 -105 78 -186 -4 -80 -6 -88 -32 -132 -36 -61 -135 -92 -217
-67 -86 26 -134 114 -124 226 7 80 22 111 74 156 48 40 163 42 221 3z"/>
<path d="M14940 6770 l0 -260 30 0 c17 0 30 3 31 8 0 4 1 52 2 107 l2 100 56
1 c74 1 135 11 160 27 36 21 58 79 55 139 -6 108 -55 138 -224 138 l-112 0 0
-260z m231 196 c25 -11 51 -64 46 -95 -12 -73 -41 -91 -147 -91 l-68 0 2 98
c2 53 4 98 5 99 3 5 148 -5 162 -11z"/>
<path d="M15392 6770 l-1 -260 37 0 c40 0 22 -23 255 320 32 47 61 86 65 88 4
1 7 -89 7 -200 l0 -203 28 -3 27 -3 0 260 0 261 -34 0 c-36 0 -39 -3 -254
-324 l-67 -99 -3 212 -2 211 -29 0 -29 0 0 -260z"/>
<path d="M16130 7021 c-111 -36 -168 -115 -175 -241 -6 -112 42 -207 128 -252
60 -31 176 -34 234 -6 39 18 41 21 31 44 -8 17 -16 23 -27 18 -117 -50 -215
-33 -263 44 -30 48 -31 54 -31 142 -1 82 12 117 60 162 50 47 162 59 218 22
27 -18 40 -13 48 15 4 15 -4 24 -32 37 -40 19 -152 28 -191 15z"/>
<path d="M16420 7005 c0 -14 6 -25 13 -26 6 0 41 -2 77 -2 l65 -2 2 -225 c1
-124 2 -228 2 -232 1 -5 15 -8 31 -8 l30 0 0 234 0 234 68 -1 c77 0 92 5 92
34 0 18 -9 19 -190 19 l-190 0 0 -25z"/>
<path d="M16891 6770 l1 -260 36 0 c33 0 41 6 69 48 17 26 72 106 122 177 50
72 100 146 111 165 10 19 20 33 21 30 1 -3 2 -97 3 -210 l1 -205 28 -3 27 -3
0 260 0 261 -33 0 c-32 0 -39 -8 -149 -167 -63 -93 -128 -188 -144 -212 l-29
-45 -3 212 -2 212 -30 0 -30 0 1 -260z"/>
<path d="M17470 6770 l0 -260 30 0 c33 0 31 -8 32 152 0 44 5 61 20 75 22 20
22 19 121 -100 97 -116 112 -129 151 -125 l37 3 -116 132 c-63 73 -115 136
-115 140 0 5 12 22 28 39 15 17 58 66 97 110 38 43 74 82 80 86 5 4 -10 8 -36
8 -41 0 -48 -4 -84 -46 -21 -25 -48 -56 -60 -68 -11 -12 -41 -46 -67 -74 -26
-29 -49 -52 -53 -52 -3 0 -5 54 -3 120 l3 120 -32 0 -33 0 0 -260z"/>
<path d="M17957 7023 c-3 -5 -5 -122 -5 -260 l0 -253 37 0 c33 0 39 6 78 63
63 94 234 341 242 349 3 4 6 -86 6 -200 l0 -207 28 -3 27 -3 0 260 0 261 -34
0 c-36 0 -34 3 -251 -319 l-70 -103 -3 211 -2 211 -25 0 c-13 0 -26 -3 -28 -7z"/>
</g>
</svg>
